<svg width="770" height="207" viewBox="0 0 770 207" fill="none" xmlns="http://www.w3.org/2000/svg">
<path d="M36.8019 75.5204C36.8019 75.5204 41.876 76.3064 47.0316 77.1231C52.2586 77.9703 57.5263 78.8687 57.5263 78.8687C57.5263 78.8687 57.6791 74.3362 57.9032 67.5478C58.0153 64.1484 58.158 60.1876 58.3108 55.9512C58.3821 53.8381 58.4636 51.6638 58.5553 49.4486C58.6369 47.2436 58.7387 45.008 58.8304 42.7826C58.9425 40.5777 59.0546 38.3727 59.1769 36.2187C59.3093 34.075 59.452 31.9823 59.5946 29.9611C59.9309 25.9595 60.2467 22.2641 60.5524 19.1302C61.2045 12.9032 61.6834 8.78927 61.6834 8.78927C61.6834 8.78927 57.5874 8.08491 53.4914 7.39075C49.426 6.7068 45.432 6.03306 45.432 6.03306C45.432 6.03306 45.2486 7.59491 44.9735 9.93259C44.6983 12.2907 44.3621 15.445 44.0564 18.6402C43.7712 21.8456 43.547 25.0918 43.3942 27.552C43.2719 30.0428 43.2006 31.7271 43.2006 31.7271C43.1191 34.9325 43.0783 38.5973 43.0885 42.5376C43.1089 46.4984 43.1598 50.7042 43.2515 54.9814L42.8032 54.91C42.1103 52.7561 41.3258 50.4388 40.4801 48.0399C39.6446 45.6409 38.7684 43.1603 37.8717 40.6695C36.9547 38.1991 36.0173 35.7288 35.1003 33.34C34.1833 30.9615 33.2765 28.6647 32.4206 26.5209C32.4206 26.5209 31.7584 24.9489 30.7904 22.6214C29.8632 20.3246 28.6711 17.3029 27.5096 14.3119C26.3582 11.3311 25.2476 8.38094 24.4427 6.18618C23.6479 4.01183 23.1181 2.57247 23.1181 2.57247C23.1181 2.57247 21.6101 2.3581 19.3584 2.04164C17.1576 1.7456 14.2537 1.3679 11.3499 1.02082C8.48676 0.694159 5.69498 0.408328 3.647 0.234788C1.63977 0.0816652 0.315208 0 0.315208 0C0.315208 0 0.121616 4.19558 0.00953747 10.6268C-0.0108405 13.8934 -0.000650334 17.7215 0.0604835 21.8354C0.0910504 23.9076 0.141994 26.0616 0.18275 28.2461C0.233695 30.4409 0.284639 32.6663 0.345773 34.9019C0.406907 37.1477 0.468041 39.3833 0.529175 41.5985C0.600498 43.8034 0.671821 45.988 0.732955 48.0909C0.875601 52.3171 0.997867 56.2473 1.10995 59.6262C1.32391 66.3738 1.47675 70.8654 1.47675 70.8654C1.47675 70.8654 4.78816 71.2329 8.09958 71.6208C11.4314 72.019 14.8141 72.4477 14.8141 72.4477C14.8141 72.4477 14.7632 70.7123 14.702 68.1092C14.6307 65.4959 14.539 62.0251 14.4371 58.5441C14.3352 55.0529 14.2435 51.5719 14.1722 48.9586C14.1009 46.3555 14.0499 44.6099 14.0499 44.6099C13.999 42.8337 13.9277 40.792 13.8462 38.5871C13.7748 36.3821 13.6831 34.024 13.5812 31.6046C13.4895 29.1853 13.3877 26.7149 13.296 24.2649C13.2144 21.8354 13.1431 19.4466 13.0718 17.1804L13.4692 17.2213C14.2231 19.4058 15.079 21.7945 15.996 24.2445C16.913 26.7149 17.881 29.2567 18.8489 31.7475C19.8067 34.2384 20.7645 36.6781 21.6611 38.9239C22.5679 41.1697 23.4238 43.2216 24.1574 44.9468C24.1574 44.9468 24.9725 46.8455 26.185 49.6936C27.3975 52.5621 29.0175 56.38 30.607 60.1978C32.1863 64.0259 33.735 67.8642 34.8864 70.7327C36.0377 73.6012 36.8019 75.5204 36.8019 75.5204ZM90.4774 85.7388C95.1541 86.3513 99.5252 86.1777 103.509 85.2794C107.574 84.3709 111.222 82.758 114.371 80.502C117.56 78.246 120.178 75.357 122.124 71.8862C123.092 70.1508 123.887 68.2623 124.498 66.2411C125.099 64.2199 125.507 62.0659 125.721 59.7895C125.925 57.4825 125.904 55.2775 125.68 53.1848C125.446 51.1023 125.008 49.1219 124.376 47.264C123.102 43.5482 121.054 40.2918 118.344 37.5458C115.665 34.7998 112.333 32.5438 108.471 30.8288C104.66 29.073 100.31 27.848 95.5515 27.1743C90.8034 26.4801 86.4731 26.4699 82.6115 27.1334C78.7804 27.7663 75.4283 29.0832 72.6161 31.0534C69.8243 33.044 67.5726 35.7083 65.9627 39.0362C65.168 40.7104 64.5363 42.558 64.0676 44.5691C63.6091 46.6005 63.3136 48.7851 63.1913 51.1432C63.0792 53.4706 63.1506 55.7164 63.3849 57.8806C63.6193 60.0345 64.0166 62.1068 64.5668 64.0668C65.6571 67.9969 67.379 71.5085 69.6613 74.52C71.964 77.5212 74.8577 80.0222 78.3117 81.9107C80.0439 82.8601 81.9186 83.6563 83.9361 84.2994C85.9738 84.9426 88.1543 85.4223 90.4774 85.7388ZM94.288 41.3637C98.7202 41.9864 102.144 43.8647 104.365 46.6924C106.607 49.5098 107.625 53.3073 107.228 57.7377C106.82 62.2497 105.18 65.8328 102.49 68.1398C99.8308 70.4571 96.173 71.4779 91.6899 70.8858C87.3494 70.2631 84.1398 68.293 82.102 65.3326C80.0744 62.362 79.188 58.4114 79.5039 53.8687C79.8197 49.3976 81.2971 45.9268 83.7832 43.7626C86.2897 41.5985 89.8355 40.7104 94.288 41.3637ZM133.454 70.794C133.159 73.4379 133.261 75.9899 133.821 78.3378C134.351 80.6857 135.35 82.8192 136.878 84.6567C138.386 86.4738 140.444 87.9744 143.114 89.0667C145.783 90.1385 149.105 90.7919 153.16 90.9041C156.991 90.9858 159.864 90.8225 162.493 90.4856C165.142 90.1487 167.537 89.6383 170.44 89.0156C170.44 89.0156 170.685 85.3713 170.766 81.727C170.746 78.0724 170.644 74.4179 170.644 74.4179C168.005 74.8466 164.276 75.602 161.128 75.5408C155.014 75.3979 153.19 73.2133 153.649 68.7625C153.649 68.7625 154.128 63.3624 154.546 57.9827C154.902 52.6438 155.218 47.3253 155.218 47.3253C155.218 47.3253 159.813 47.5294 164.429 47.7132C169.095 47.8663 173.793 48.0092 173.793 48.0092C173.793 48.0092 173.925 44.7834 174.037 41.5576C174.129 38.3421 174.22 35.1367 174.22 35.1367C174.22 35.1367 169.574 34.9733 164.969 34.7896C160.414 34.5854 155.86 34.3608 155.86 34.3608C155.86 34.3608 156.003 31.0126 156.145 27.6643C156.278 24.3364 156.41 21.0289 156.41 21.0289C156.41 21.0289 151.57 20.7533 146.761 20.4573C141.993 20.1408 137.265 19.7937 137.265 19.7937C137.265 19.7937 137.061 23.1012 136.858 26.4495C136.654 29.7978 136.45 33.1665 136.45 33.1665L128.818 32.5336C128.818 32.5336 128.584 35.7798 128.35 39.0362C128.105 42.3028 127.861 45.5797 127.861 45.5797L135.584 46.182C135.584 46.182 135.482 47.703 135.309 49.9896C135.136 52.2763 134.901 55.3387 134.647 58.4114C134.382 61.4943 134.096 64.5874 133.862 66.9046C133.628 69.2321 133.454 70.794 133.454 70.794ZM205.643 72.0087C205.327 74.5404 205.429 76.9495 206.01 79.1137C206.55 81.2778 207.559 83.2072 209.128 84.7894C210.656 86.3717 212.765 87.5967 215.537 88.3521C218.247 89.0871 221.671 89.3525 225.868 89.0156C229.812 88.689 232.776 88.25 235.528 87.6477C238.299 87.0557 240.795 86.3105 243.781 85.4121C243.781 85.4121 244.137 81.9515 244.331 78.5012C244.402 75.0712 244.351 71.6515 244.351 71.6515C241.661 72.3456 237.84 73.4481 234.58 73.7135C228.304 74.2035 226.459 72.3558 226.948 68.1296C226.948 68.1296 227.407 63.0153 227.723 57.9214C227.927 52.8479 228.018 47.8051 228.018 47.8051C228.018 47.8051 232.756 47.5703 237.453 47.264C242.201 46.9272 246.909 46.5699 246.909 46.5699C246.909 46.5699 246.847 43.5278 246.725 40.496C246.572 37.4641 246.389 34.4527 246.389 34.4527C246.389 34.4527 241.753 34.7386 237.148 35.0142C232.512 35.2285 227.825 35.4123 227.825 35.4123C227.825 35.4123 227.692 32.1967 227.529 29.0015C227.325 25.8166 227.101 22.6418 227.101 22.6418C227.101 22.6418 222.078 22.7337 217.055 22.7847C211.981 22.7949 206.907 22.7643 206.907 22.7643C206.907 22.7643 207.029 26.0105 207.121 29.2772C207.172 32.5438 207.223 35.8002 207.223 35.8002L198.847 35.739C198.847 35.739 198.837 38.9035 198.806 42.0783C198.756 45.253 198.684 48.438 198.684 48.438L207.131 48.4074C207.131 48.4074 207.1 49.8671 207.029 52.0721C206.958 54.2771 206.825 57.217 206.662 60.1672C206.469 63.1174 206.234 66.0778 206.041 68.3032C205.806 70.5286 205.643 72.0087 205.643 72.0087ZM272.931 52.6336C272.89 49.7957 273.991 47.4069 276.08 45.6103C278.168 43.8239 281.286 42.6397 285.27 42.1599C289.386 41.6699 292.27 42.2518 294.165 43.5687C296.06 44.8957 296.967 46.968 297.048 49.4588C297.048 49.4588 297.089 51.2146 297.11 53.879C297.069 56.5637 296.926 60.1774 296.682 63.832C296.305 67.5171 295.765 71.2431 295.255 74.0708C294.624 76.9189 294.134 78.838 294.134 78.838C294.134 78.838 299.076 77.9908 303.946 77.1129C308.827 76.2247 313.636 75.3877 313.636 75.3877C313.636 75.3877 314.186 73.2337 314.869 70.0692C315.154 68.4971 315.45 66.6801 315.715 64.7405C315.939 62.8111 316.132 60.7695 316.275 58.7381C316.377 56.7168 316.438 54.7058 316.458 52.8275C316.458 50.9594 316.428 49.224 316.377 47.7438C316.234 44.7834 316.102 42.8337 316.102 42.8337C315.888 40.3224 315.287 38.0766 314.278 36.1575C313.259 34.2383 311.833 32.6255 309.999 31.3903C308.154 30.1449 305.893 29.2772 303.213 28.8382C300.533 28.3686 297.415 28.338 293.819 28.7361C288.469 29.3384 283.854 30.7574 280.318 33.4421C278.515 34.7896 276.997 36.4637 275.774 38.536C274.531 40.6185 273.573 43.0991 272.921 46.0186L272.768 46.039C272.768 46.039 272.676 44.273 272.524 41.6393C272.34 39.0056 272.045 35.5144 271.709 32.0538C271.342 28.6136 270.944 25.1837 270.628 22.6214C270.282 20.0796 270.038 18.385 270.038 18.385C270.038 18.385 265.177 18.7219 260.287 19.0485C255.396 19.3548 250.454 19.6508 250.454 19.6508C250.454 19.6508 250.892 23.581 251.483 29.5528C251.748 32.554 252.013 36.0656 252.248 39.8529C252.349 41.7516 252.431 43.7116 252.502 45.7226C252.543 47.7234 252.563 49.7753 252.563 51.8169C252.543 53.879 252.502 55.941 252.441 57.9827C252.339 60.0243 252.217 62.0353 252.074 63.9851C251.697 67.8948 251.239 71.5596 250.74 74.7139C249.456 81.0736 248.315 85.3509 248.315 85.3509C248.315 85.3509 253.572 84.7384 258.85 84.1055C264.067 83.4522 269.253 82.7172 269.253 82.7172C269.253 82.7172 269.813 80.7878 270.516 77.8989C271.107 75.0202 271.739 71.2125 272.218 67.4457C272.564 63.7095 272.778 59.9937 272.88 57.2272C272.921 54.471 272.931 52.6336 272.931 52.6336ZM353.414 32.5642C357.489 32.0742 360.689 32.4621 363.032 33.7177C365.355 34.9835 366.812 37.1069 367.393 40.1081C367.393 40.1081 360.73 40.9247 353.995 41.7618C347.168 42.6091 340.321 43.4666 340.321 43.4666C340.667 40.1285 341.931 37.6479 344.101 35.8819C346.251 34.1159 349.369 33.0542 353.414 32.5642ZM352.15 71.1206C356.511 70.5592 360.393 69.6404 363.878 68.4359C367.322 67.2313 370.328 65.7307 372.956 64.0055C375.534 62.2905 377.694 60.3714 379.457 58.3195C381.148 56.2881 382.432 54.124 383.349 51.8884C383.349 51.8884 379.64 51.5107 375.87 51.1636C372.049 50.8267 368.157 50.5 368.157 50.5C367.363 52.4294 366.191 54.2669 364.163 55.7573C362.105 57.2579 359.191 58.4012 354.932 58.9422C350.561 59.5037 347.199 59.1872 344.835 57.901C342.461 56.6046 341.014 54.3587 340.464 51.0513C340.464 51.0513 343.245 50.694 347.423 50.1632C349.511 49.8875 351.947 49.5915 354.535 49.2648C357.112 48.9382 359.853 48.5911 362.584 48.244C365.284 47.9072 367.984 47.5601 370.511 47.2436C373.007 46.9374 375.33 46.6617 377.307 46.4168C381.199 45.9472 383.787 45.6511 383.787 45.6511C383.971 43.0991 383.899 41.5474 383.757 39.516C383.451 36.4331 382.524 33.6463 381.006 31.2371C379.416 28.828 377.266 26.7966 374.566 25.2143C371.836 23.6422 368.565 22.5091 364.764 21.917C360.974 21.325 356.664 21.2637 351.845 21.8047C349.277 22.1008 346.883 22.5295 344.651 23.0808C342.43 23.632 340.352 24.3058 338.436 25.0918C334.554 26.6741 331.314 28.7361 328.777 31.2167C326.179 33.7177 324.263 36.6475 323.071 39.955C322.45 41.6291 322.001 43.3849 321.726 45.2326C321.42 47.1007 321.288 49.0607 321.329 51.1023C321.329 53.0827 321.512 54.9202 321.879 56.6148C322.215 58.3195 322.725 59.8814 323.418 61.2901C324.722 64.128 326.749 66.3738 329.419 68.0378C332.027 69.7119 335.349 70.7838 339.272 71.2738C343.062 71.8046 347.341 71.7535 352.15 71.1206ZM431.278 50.1121C427.427 50.3877 424.94 49.3771 423.585 47.2844C422.087 45.2428 421.446 42.211 421.476 38.4033C421.262 34.4119 421.884 31.2167 423.545 28.9199C425.154 26.6332 427.916 25.2347 431.961 24.8774C435.567 24.5712 438.655 25.4491 440.947 27.3172C443.158 29.2159 444.462 32.1252 444.432 35.9023L444.371 36.8006C443.933 40.7512 442.364 43.9464 440.04 46.2228C437.666 48.5299 434.671 49.8671 431.278 50.1121ZM438.319 61.0349C438.319 61.0349 441.885 60.8103 445.441 60.596C448.976 60.3918 452.471 60.2183 452.471 60.2183C452.471 60.2183 453.979 56.1043 455.956 49.9794C456.801 46.9476 457.667 43.4462 458.442 39.7202C458.747 37.8725 459.022 35.9738 459.226 34.0648C459.359 32.1763 459.369 30.2878 459.287 28.4299C459.124 26.6026 458.9 24.7855 458.625 22.9991C458.309 21.2433 457.953 19.5079 457.576 17.844C456.74 14.5263 455.844 11.4536 455.008 8.83011C453.164 3.62392 451.819 0.17354 451.819 0.17354C451.819 0.17354 448.069 0.428746 444.289 0.704367C440.489 0.990197 436.658 1.29644 436.658 1.29644C436.658 1.29644 437.249 2.80726 438.105 5.06328C438.94 7.33971 439.969 10.3715 440.927 13.4238C441.793 16.4965 442.567 19.5794 443.087 21.8966C443.535 24.2343 443.8 25.8064 443.8 25.8064L443.576 25.8166C442.516 23.5095 441.243 21.5802 439.796 19.9877C438.319 18.4054 436.678 17.16 434.895 16.2413C433.092 15.3123 431.145 14.6998 429.047 14.3834C426.927 14.0669 424.675 14.0363 422.261 14.2813C418.858 14.5773 415.984 15.394 413.651 16.67C411.297 17.9562 409.463 19.7121 408.149 21.8864C406.804 24.071 405.948 26.6945 405.551 29.7161C405.306 31.2371 405.174 32.8602 405.143 34.5854C405.072 36.3106 405.092 38.1379 405.194 40.0672C405.245 41.9353 405.357 43.7116 405.541 45.3857C405.673 47.0803 405.867 48.6728 406.132 50.1632C406.468 53.2052 407.089 55.8287 408.139 57.952C409.086 60.0855 410.554 61.6882 412.591 62.6886C414.588 63.6891 417.166 64.077 420.366 63.8013C422.597 63.6278 424.747 63.1786 426.795 62.4436C428.833 61.7189 430.779 60.698 432.643 59.3506C434.508 58.0235 436.271 56.3698 437.911 54.369C439.521 52.3886 440.988 50.0713 442.282 47.3967L442.608 47.3763C442.608 47.3763 441.722 50.745 440.693 54.1444C439.551 57.5743 438.319 61.0349 438.319 61.0349ZM471.545 59.5343C471.545 59.5343 472.115 58.0133 472.93 55.7368C473.725 53.4706 474.714 50.4694 475.631 47.4784C476.466 44.4976 477.22 41.5576 477.719 39.3527C478.157 37.1783 478.412 35.7288 478.412 35.7288C478.942 32.115 479.767 29.7978 481.448 28.3584C483.099 26.9293 485.687 26.3678 489.549 26.3474H494.725C494.725 26.3474 494.755 22.5091 494.419 18.7627C493.838 15.0673 493.074 11.4026 493.074 11.4026L490.669 11.4332C487.215 11.4842 484.566 12.1069 482.875 14.4242C482.019 15.5879 481.367 17.1702 480.908 19.3139C480.389 21.4883 479.971 24.2343 479.451 27.7663H479.248C479.248 27.7663 479.125 23.6524 478.606 19.6304C477.842 15.6696 476.874 11.7497 476.874 11.7497C476.874 11.7497 473.226 11.8824 469.558 12.0355C465.859 12.209 462.13 12.4132 462.13 12.4132C462.13 12.4132 462.874 15.1388 463.822 19.2629C464.219 21.3454 464.586 23.7749 464.881 26.4291C465.014 29.124 464.952 32.0538 464.677 35.0346C464.229 38.0664 463.648 41.1289 462.986 44.0178C462.222 46.9374 461.437 49.6732 460.704 52.0313C459.114 56.7781 457.942 59.963 457.942 59.963C457.942 59.963 461.376 59.8303 464.779 59.7181C468.182 59.616 471.545 59.5343 471.545 59.5343ZM509.896 61.2799C513.432 61.5555 516.896 61.2595 520.177 60.402C523.447 59.5445 526.535 58.1256 529.337 56.1758C532.118 54.2465 534.604 51.7863 536.693 48.8259C537.712 47.3559 538.639 45.7634 539.434 44.0382C540.218 42.3233 540.881 40.496 541.411 38.5462C541.9 36.576 542.205 34.6875 542.307 32.8909C542.389 31.0942 542.277 29.3895 541.981 27.7766C541.298 24.5712 539.913 21.7639 537.906 19.3956C535.735 17.0375 533.015 15.1388 529.866 13.73C526.677 12.3519 523.131 11.474 519.331 11.1372C515.49 10.8105 512.117 11.1167 509.224 11.9742C506.309 12.8419 503.905 14.3119 502.01 16.3331C500.053 18.3646 498.556 20.9064 497.516 23.8974C496.925 25.4185 496.416 27.062 495.968 28.828C495.479 30.594 495.061 32.4927 494.714 34.5038C494.337 36.4944 494.073 38.4033 493.93 40.2102C493.746 42.0272 493.696 43.7524 493.777 45.3653C493.869 48.6013 494.511 51.4188 495.744 53.7258C496.925 56.0431 498.709 57.8602 501.062 59.1158C502.234 59.7487 503.558 60.2387 505.015 60.5755C506.483 60.9226 508.113 61.1676 509.896 61.2799ZM520.319 23.1829C523.651 23.5095 526.178 25.0101 527.717 27.3682C529.163 29.7365 529.54 32.9623 528.705 36.7598C527.706 40.6287 525.872 43.7116 523.458 45.7328C520.992 47.7847 517.986 48.7953 514.654 48.4584C511.353 48.1624 509.224 46.672 508.205 44.2934C507.125 41.9149 507.063 38.6279 507.96 34.7181C508.684 30.9003 510.11 27.8582 512.158 25.8268C514.165 23.826 516.916 22.8562 520.319 23.1829ZM561.748 12.6378L560.179 3.971C560.179 3.971 556.521 3.45038 552.873 2.9808C549.185 2.50101 545.506 2.05185 545.506 2.05185L547.453 10.6574C547.453 10.6574 551.049 11.1167 554.646 11.5965C558.222 12.1172 561.748 12.6378 561.748 12.6378ZM549.287 64.669C549.287 64.669 550.53 61.7291 552.302 57.3191C553.148 55.1039 554.106 52.5315 555.084 49.765C556.011 47.0088 556.938 44.0587 557.805 41.1085C558.609 38.1583 559.333 35.2081 559.944 32.4417C560.494 29.6753 560.922 27.0926 561.238 24.8774C561.676 20.4675 561.799 17.5377 561.799 17.5377C561.799 17.5377 558.497 17.0171 555.155 16.5067C551.793 16.0167 548.38 15.5675 548.38 15.5675C548.38 15.5675 548.431 18.4871 548.176 22.8766C547.931 25.0816 547.575 27.6541 547.106 30.4205C546.546 33.1869 545.873 36.1371 545.129 39.0873C544.304 42.0476 543.408 45.008 542.511 47.7846C541.563 50.5511 540.636 53.144 539.811 55.3694C538.079 59.8303 536.856 62.8009 536.856 62.8009C536.856 62.8009 539.984 63.2501 543.092 63.7095C546.179 64.179 549.287 64.669 549.287 64.669ZM578.315 58.2787C575.197 57.6968 573.424 56.1248 572.752 53.7258C572.049 51.3371 572.426 48.1113 573.638 44.2424C574.82 40.1183 576.359 36.9946 578.366 35.0346C580.332 33.0848 582.859 32.3192 585.977 32.9215C588.769 33.4625 590.735 35.0958 591.764 37.5458C592.743 39.9856 592.732 43.2522 591.601 47.0599L591.316 47.9582C590.063 51.8067 588.198 54.6446 585.946 56.4004C583.674 58.146 581.056 58.7993 578.315 58.2787ZM582.737 70.6817C582.737 70.6817 585.692 71.2431 588.657 71.825C591.612 72.4069 594.556 72.9887 594.556 72.9887C594.556 72.9887 596.135 69.2525 598.408 63.638C599.488 60.8205 600.7 57.5335 601.943 54.0117C602.534 52.2456 603.125 50.4184 603.716 48.5605C604.276 46.7026 604.837 44.8141 605.367 42.9255C605.876 41.037 606.355 39.1383 606.813 37.2804C607.241 35.4123 607.649 33.5748 608.006 31.7884C608.647 28.2257 609.147 24.8978 609.493 22.0395C609.921 16.3434 609.972 12.5357 609.972 12.5357C609.972 12.5357 606.813 11.913 603.645 11.3005C600.476 10.6778 597.256 10.0755 597.256 10.0755C597.256 10.0755 597.378 11.7292 597.429 14.22C597.389 16.7108 597.195 20.0387 596.859 23.3564C596.411 26.6843 595.85 30.0122 595.361 32.503C594.821 35.004 594.444 36.6577 594.444 36.6577L594.261 36.6271C594.322 34.0138 594.098 31.7475 593.598 29.7774C593.079 27.8072 592.294 26.1534 591.275 24.7753C590.226 23.4074 588.962 22.3152 587.475 21.4985C585.967 20.6716 584.265 20.1 582.35 19.7733C579.68 19.2629 577.276 19.4058 575.146 20.151C572.996 20.9064 571.101 22.2437 569.471 24.1628C567.79 26.082 566.302 28.5524 565.008 31.5434C564.336 33.044 563.694 34.6671 563.103 36.4229C562.471 38.1685 561.88 40.0468 561.32 42.0374C560.749 43.9464 560.27 45.7838 559.883 47.5294C559.475 49.275 559.16 50.939 558.956 52.5111C558.508 55.645 558.497 58.4216 558.966 60.7695C559.414 63.1174 560.362 65.0467 561.839 66.4963C563.317 67.9561 565.334 68.9361 567.902 69.4056C569.695 69.7323 571.458 69.7732 573.19 69.5077C574.922 69.2423 576.603 68.6707 578.264 67.7621C579.904 66.8536 581.514 65.6082 583.083 64.0055C584.632 62.3926 586.12 60.4224 587.556 58.0643L587.821 58.1154C587.821 58.1154 586.619 61.2595 585.376 64.4036C584.082 67.5376 582.737 70.6817 582.737 70.6817ZM615.494 78.736C618.48 79.3587 621.19 79.5526 623.625 79.3485C626.06 79.1443 628.22 78.5522 630.126 77.5926C632.011 76.6433 633.641 75.3366 635.017 73.7033C636.382 72.07 637.472 70.1202 638.318 67.8846C639.561 64.4649 639.795 61.3412 638.42 58.4114C637.717 56.9516 636.626 55.5327 635.047 54.1546C633.447 52.7765 631.369 51.4392 628.73 50.1428C625.092 48.438 623.126 47.0905 622.189 45.8451C621.241 44.6099 621.282 43.4666 621.618 42.1906C622.26 39.6283 624.491 38.4543 627.874 39.22C629.851 39.6691 631.185 40.5981 631.97 42.0578C632.744 43.5278 632.958 45.5286 632.714 48.1215C632.714 48.1215 635.628 48.0399 638.511 47.9684C641.395 47.8867 644.258 47.8153 644.258 47.8153C644.462 45.5797 644.411 43.4972 644.024 41.5781C643.616 39.6487 642.893 37.8929 641.772 36.3412C640.641 34.7794 639.143 33.4217 637.197 32.2784C635.241 31.1351 632.846 30.2265 629.953 29.563C627.11 28.9199 624.563 28.7157 622.352 28.9097C620.12 29.1036 618.195 29.6957 616.554 30.6451C614.903 31.5842 613.538 32.8909 612.458 34.514C611.358 36.1371 610.532 38.0766 609.982 40.302C608.943 44.1505 609.024 47.3865 610.675 50.2959C611.48 51.7454 612.682 53.1235 614.313 54.4506C615.933 55.7879 617.981 57.0741 620.497 58.3502C623.768 59.9631 625.643 61.2187 626.59 62.3824C627.528 63.5461 627.538 64.6282 627.069 65.8838C625.908 68.6707 623.472 69.814 619.804 69.0177C617.369 68.4971 615.882 67.364 615.107 65.6899C614.313 64.0055 614.211 61.7801 614.608 59.0749C614.608 59.0749 611.714 59.126 608.8 59.1668C605.866 59.2179 602.911 59.2689 602.911 59.2689C602.422 61.4534 602.137 63.5972 602.177 65.6184C602.208 67.6396 602.585 69.5384 603.461 71.2533C604.317 72.9683 605.662 74.4893 607.629 75.7654C609.585 77.0312 612.152 78.0418 615.494 78.736ZM645.633 100.418C648.089 100.888 650.371 101.031 652.562 100.806C654.742 100.571 656.811 99.9895 658.828 99.0299C660.846 98.0703 662.812 96.733 664.789 94.9976C666.745 93.2725 668.701 91.1491 670.719 88.6175C670.719 88.6175 672.736 86.045 675.721 82.1863C677.178 80.257 678.87 78.001 680.653 75.5816C682.416 73.1623 684.26 70.5796 686.063 67.9969C687.846 65.404 689.589 62.8111 691.198 60.3714C692.768 57.9316 694.204 55.645 695.407 53.685C697.76 49.7548 699.278 47.1109 699.278 47.1109C699.278 47.1109 696.425 46.4984 693.573 45.8757C690.699 45.2428 687.826 44.5997 687.826 44.5997C687.826 44.5997 685.921 48.6626 683.924 52.705C681.835 56.7373 679.654 60.7491 679.654 60.7491C678.544 62.7397 677.341 64.812 676.068 66.9455C674.774 69.079 673.398 71.2738 671.972 73.5094L671.33 73.3766C671.564 70.8858 671.778 68.3644 671.952 65.9042C672.115 63.4441 672.257 61.0553 672.379 58.8401C672.379 58.8401 672.481 54.42 672.502 49.9692C672.441 45.5082 672.288 41.0064 672.288 41.0064C672.288 41.0064 669.313 40.302 666.327 39.5977C663.332 38.8831 660.316 38.1583 660.316 38.1583C660.316 38.1583 660.601 41.231 660.927 45.8145C661.06 48.1011 661.172 50.7552 661.273 53.5931C661.335 56.4208 661.375 59.422 661.375 62.413C661.345 65.404 661.284 68.3746 661.202 71.1615C661.1 73.9381 660.978 76.5208 660.866 78.736C660.601 83.1459 660.397 86.0757 660.397 86.0757C658.614 88.1581 657.167 89.2606 655.649 89.7506C654.141 90.2406 652.582 90.1079 650.575 89.6996C648.945 89.3627 647.427 88.74 645.868 87.9846C645.868 87.9846 644.36 90.6387 642.831 93.2929C641.273 95.947 639.693 98.6011 639.693 98.6011C641.548 99.2953 642.984 99.8976 645.633 100.418ZM702.906 95.7428C705.932 96.1818 708.876 96.0287 711.658 95.3345C714.419 94.6404 716.997 93.4052 719.351 91.68C721.694 89.9548 723.783 87.7294 725.566 85.0651C726.452 83.738 727.257 82.2884 727.97 80.7368C728.674 79.1851 729.295 77.5212 729.804 75.7552C730.324 73.9687 730.681 72.2537 730.895 70.6102C731.098 68.9769 731.16 67.4151 731.088 65.9349C730.915 62.9643 730.202 60.3305 729.03 58.0745C727.828 55.7981 726.177 53.9096 724.099 52.4498C722.03 50.9798 719.554 49.9488 716.712 49.4078C713.838 48.8463 711.118 48.8769 708.581 49.4792C706.044 50.0713 703.7 51.2146 701.591 52.9092C699.452 54.5935 697.526 56.8189 695.855 59.5547C695.009 60.9226 694.225 62.413 693.511 64.0259C692.788 65.6388 692.126 67.3742 691.545 69.2321C690.964 71.0594 690.506 72.8152 690.18 74.4893C689.854 76.1737 689.66 77.7764 689.599 79.2872C689.456 82.319 689.854 85.014 690.791 87.3109C691.708 89.6077 693.206 91.486 695.233 92.9152C696.242 93.6297 697.393 94.2218 698.677 94.6914C699.961 95.161 701.367 95.5183 702.906 95.7428ZM714.073 61.1064C716.732 61.576 718.535 63.0868 719.442 65.353C720.349 67.5988 720.319 70.6 719.3 74.081C718.23 77.5926 716.559 80.3693 714.439 82.1659C712.3 83.9524 709.753 84.7588 706.951 84.3301C704.179 83.8911 702.437 82.4007 701.693 80.1243C700.939 77.8478 701.163 74.7752 702.294 71.2125C703.364 67.6805 704.974 64.9038 706.971 63.1378C708.958 61.3616 711.362 60.6062 714.073 61.1064ZM749.204 99.8363C749.204 99.8363 751.853 100.03 754.492 100.214C757.131 100.388 759.75 100.551 759.75 100.551C759.75 100.551 760.555 97.9172 761.737 93.9666C762.317 91.9964 762.99 89.6894 763.683 87.219C764.365 84.7384 765.079 82.1047 765.772 79.4505C766.444 76.8066 767.086 74.1423 767.667 71.6412C768.217 69.1198 768.696 66.7515 769.083 64.7099C769.694 60.5143 770 57.6458 770 57.6458C770 57.6458 767.606 57.5947 765.17 57.5233C762.715 57.4008 760.239 57.2477 760.239 57.2477C760.239 57.2477 759.994 58.881 759.577 61.2901C759.128 63.6788 758.466 66.8434 757.753 69.9773C756.999 73.101 756.204 76.2145 755.583 78.542C754.951 80.8593 754.513 82.4109 754.513 82.4109C753.82 84.8609 752.638 86.7392 751.099 87.9744C749.551 89.1892 747.645 89.7608 745.526 89.5567C743.325 89.3423 742.062 88.3317 741.512 86.8413C740.961 85.3407 741.145 83.3501 741.797 81.1553C741.797 81.1553 742.255 79.6037 742.918 77.266C743.57 74.9181 744.405 71.7944 745.19 68.6605C745.944 65.5061 746.637 62.3518 747.126 59.963C747.574 57.5641 747.859 55.9512 747.859 55.9512C747.859 55.9512 745.302 55.6041 742.724 55.2264C740.136 54.8385 737.548 54.42 737.548 54.42C737.548 54.42 737.202 56.2677 736.651 59.0137C736.356 60.3918 736.01 61.9843 735.612 63.689C735.205 65.3836 734.766 67.2007 734.298 68.9973C733.829 70.8042 733.34 72.6008 732.871 74.2852C732.392 75.9593 731.934 77.5314 731.537 78.8687C730.721 81.5534 730.171 83.3297 730.171 83.3297C729.427 85.6469 728.959 87.8009 728.786 89.7302C728.612 91.6596 728.745 93.3745 729.234 94.8241C729.703 96.2737 730.528 97.4578 731.74 98.3357C732.943 99.2136 734.532 99.7853 736.57 99.9895C739.555 100.275 742.429 99.673 745.159 97.8151C746.514 96.876 747.829 95.6306 749.092 94.0279C750.356 92.415 751.558 90.455 752.699 88.0867L752.862 88.1071C752.862 88.1071 751.976 91.0369 751.069 93.9666C750.152 96.9066 749.204 99.8363 749.204 99.8363ZM85.7395 146.539C85.7395 146.539 81.8473 145.967 77.9857 145.365C74.1546 144.732 70.3745 144.079 70.3745 144.079C70.3745 144.079 69.0907 149.336 67.8579 154.563C66.6861 159.759 65.5755 164.934 65.5755 164.934C64.8929 168.242 64.2815 171.569 63.7212 174.969C63.1811 178.348 62.6819 181.788 62.2132 185.33L61.8464 185.259C61.3369 181.645 60.7765 178.144 60.1448 174.571C59.5335 170.988 58.861 167.333 58.1274 163.434C58.1274 163.434 57.0983 157.901 56.0896 152.347C55.0809 146.764 54.0722 141.159 54.0722 141.159C54.0722 141.159 50.6691 140.567 47.2965 139.975C43.924 139.393 40.6024 138.822 40.6024 138.822C40.6024 138.822 41.4175 142.405 42.63 147.764C43.2413 150.438 43.9444 153.542 44.7085 156.87C45.4829 160.187 46.298 163.709 47.1233 167.221C47.9588 170.722 48.7943 174.213 49.5789 177.48C50.3736 180.736 51.1276 183.758 51.7695 186.341C53.0635 191.496 53.9092 194.895 53.9092 194.895C53.9092 194.895 57.6383 195.589 61.3675 196.273C65.1578 196.988 68.9685 197.703 68.9685 197.703C68.9685 197.703 69.8651 192.313 70.7923 186.861C71.7806 181.339 72.7995 175.765 72.7995 175.765C73.3497 172.794 73.9203 169.671 74.5011 166.486C75.092 163.28 75.6728 160.024 76.223 156.808L76.7223 156.9C76.9057 160.31 77.1502 163.689 77.4763 167.017C77.8023 170.344 78.1997 173.632 78.6786 176.857C78.6786 176.857 78.8925 178.348 79.2186 180.573C79.5344 182.798 79.9522 185.738 80.3801 188.658C80.808 191.557 81.236 194.436 81.562 196.58C81.8881 198.713 82.1122 200.122 82.1122 200.122C82.1122 200.122 85.984 200.816 89.866 201.5C93.7684 202.153 97.6912 202.786 97.6912 202.786C97.6912 202.786 98.6489 199.703 100.137 195.008C100.89 192.639 101.818 189.842 102.826 186.831C103.866 183.789 105.017 180.512 106.209 177.215C107.452 173.877 108.736 170.518 109.979 167.343C111.253 164.169 112.486 161.178 113.566 158.615C115.817 153.46 117.376 150.01 117.376 150.01C117.376 150.01 113.617 149.724 109.887 149.407C106.189 149.06 102.531 148.672 102.531 148.672C102.531 148.672 100.829 154.042 99.2195 159.391C97.7115 164.699 96.2647 169.987 96.2647 169.987C95.2356 173.754 94.2779 177.245 93.3914 180.645C92.5254 184.013 91.7204 187.28 90.9563 190.628L90.5793 190.557C90.243 186.872 89.9068 183.258 89.54 179.675C89.1834 176.061 88.7758 172.498 88.2969 168.926C88.2969 168.926 87.6245 163.362 86.9826 157.768C86.3508 152.164 85.7395 146.539 85.7395 146.539ZM139.67 162.821C143.144 162.801 145.518 163.699 146.802 165.536C148.076 167.364 148.259 170.13 147.454 173.836C147.454 173.836 141.911 173.979 136.47 174.009C131.131 173.928 125.823 173.754 125.823 173.754C127.066 169.854 128.829 167.108 131.111 165.363C133.434 163.607 136.287 162.821 139.67 162.821ZM132.048 206.992C135.39 206.88 138.366 206.308 140.994 205.369C143.664 204.42 145.966 203.123 147.974 201.561C149.991 199.989 151.713 198.121 153.19 196.039C154.698 193.946 155.952 191.639 157.022 189.189C157.022 189.189 153.883 188.505 150.796 187.79C147.77 187.035 144.774 186.239 144.774 186.239C143.766 188.372 142.594 190.312 140.852 191.751C139.13 193.18 136.817 194.119 133.536 194.191C130.265 194.211 127.861 193.333 126.302 191.465C124.733 189.556 124.009 186.688 124.162 182.727C124.162 182.727 126.23 182.809 129.358 182.901C130.928 182.931 132.762 182.962 134.748 182.972C136.735 182.972 138.865 182.962 141.004 182.931C143.175 182.87 145.365 182.788 147.444 182.707C149.522 182.615 151.489 182.513 153.17 182.411C156.573 182.196 158.876 182.033 158.876 182.033C159.925 179.032 160.465 177.184 161.24 174.744C162.452 170.988 163.125 167.507 163.165 164.424C163.227 161.32 162.605 158.605 161.26 156.38C159.895 154.134 157.776 152.388 154.882 151.214C151.968 150.02 148.32 149.397 143.908 149.428C141.595 149.428 139.364 149.591 137.235 149.918C135.115 150.234 133.088 150.714 131.162 151.347C127.412 152.562 124.06 154.43 121.187 156.931C118.375 159.411 116.062 162.525 114.289 166.21C113.423 168.048 112.7 170.028 112.109 172.141C111.538 174.244 111.09 176.48 110.794 178.858C110.519 181.124 110.427 183.268 110.509 185.279C110.601 187.29 110.845 189.168 111.242 190.914C112.037 194.395 113.423 197.366 115.298 199.795C117.172 202.194 119.546 204.072 122.318 205.348C125.14 206.533 128.411 207.074 132.048 206.992ZM174.883 202.429C174.883 202.429 175.117 200.918 175.484 198.662C175.891 196.386 176.442 193.323 177.053 190.23C177.715 187.117 178.439 183.993 179.07 181.625C179.804 179.215 180.364 177.582 180.364 177.582C181.883 173.468 183.666 170.722 186.294 168.885C188.964 167.047 192.438 166.118 197.349 165.608L204.125 164.863C204.125 164.863 206.367 160.31 208.731 155.747C211.186 151.163 213.723 146.58 213.723 146.58L210.534 146.917C205.969 147.386 201.996 148.468 197.716 151.592C195.607 153.144 193.467 155.206 191.195 157.941C188.974 160.677 186.641 164.107 184.134 168.385L183.88 168.405C183.88 168.405 185.968 163.464 188.159 158.513C190.452 153.562 192.815 148.611 192.815 148.611C192.815 148.611 188.302 148.989 183.819 149.346C179.335 149.652 174.893 149.948 174.893 149.948C174.893 149.948 173.426 153.429 171.276 158.656C170.247 161.269 169.075 164.322 167.883 167.578C166.732 170.814 165.539 174.264 164.439 177.684C163.42 181.084 162.544 184.462 161.871 187.596C161.281 190.689 160.791 193.548 160.414 195.988C159.762 200.796 159.396 203.96 159.396 203.96C159.396 203.96 163.216 203.613 167.078 203.246C170.96 202.847 174.883 202.429 174.883 202.429ZM242.11 154.011C246.45 153.409 249.181 153.899 250.312 155.451C251.453 156.992 251.005 159.605 249.12 163.26C249.12 163.26 242.038 164.25 235.059 165.21C228.242 166.139 221.487 167.006 221.487 167.006C224.116 163.046 227.152 160.085 230.586 157.972C234.081 155.859 237.891 154.583 242.11 154.011ZM223.657 197.703C227.723 197.141 231.452 196.181 234.824 194.916C238.217 193.629 241.284 192.037 244.076 190.21C246.888 188.372 249.425 186.28 251.718 184.023C254.061 181.757 256.14 179.318 258.004 176.776C258.004 176.776 254.367 176.459 250.719 176.143C247.061 175.816 243.393 175.479 243.393 175.479C241.753 177.674 239.909 179.736 237.433 181.4C234.998 183.054 231.91 184.309 227.774 184.881C223.617 185.442 220.652 185.055 218.899 183.605C217.157 182.145 216.647 179.603 217.452 175.847C217.452 175.847 220.112 175.5 224.106 174.959C226.123 174.683 228.477 174.367 231.014 174.019C233.571 173.672 236.312 173.295 239.073 172.917C241.885 172.519 244.708 172.11 247.367 171.723C250.026 171.335 252.502 170.967 254.601 170.651C258.85 169.997 261.713 169.558 261.713 169.558C263.568 166.516 264.597 164.658 266.023 162.198C268.336 158.391 269.905 154.93 270.628 151.939C271.393 148.938 271.26 146.416 270.16 144.477C269.07 142.537 266.991 141.18 263.822 140.506C260.674 139.822 256.445 139.791 251.076 140.547C248.274 140.935 245.513 141.486 242.802 142.18C240.082 142.864 237.453 143.66 234.886 144.61C229.761 146.498 224.911 148.948 220.468 151.919C216.128 154.869 212.195 158.34 208.781 162.26C207.131 164.209 205.613 166.271 204.247 168.436C202.933 170.6 201.802 172.856 200.926 175.193C200.151 177.429 199.652 179.491 199.418 181.39C199.204 183.288 199.245 185.024 199.499 186.596C200.06 189.72 201.466 192.19 203.575 194.058C205.674 195.875 208.466 197.09 211.838 197.703C215.231 198.305 219.205 198.315 223.657 197.703ZM337.967 112.219C337.967 112.219 333.352 112.974 328.706 113.781C324.039 114.608 319.311 115.465 319.311 115.465C319.311 115.465 316.448 120.11 312.067 127.113C309.846 130.624 307.268 134.708 304.486 139.077C303.091 141.261 301.654 143.507 300.207 145.794C298.77 148.07 297.334 150.377 295.918 152.684C294.501 154.981 293.105 157.268 291.781 159.503C290.477 161.729 289.223 163.913 288.021 166.016C285.698 170.202 283.66 174.06 281.979 177.358C278.841 183.87 276.905 188.158 276.905 188.158C276.905 188.158 281.47 187.402 286.055 186.627C290.619 185.871 295.204 185.095 295.204 185.095C295.204 185.095 297.354 180.736 300.788 174.132C302.571 170.804 304.731 166.884 307.146 162.647C308.389 160.524 309.693 158.309 311.038 156.063C312.413 153.807 313.82 151.5 315.226 149.203C316.652 146.886 318.068 144.569 319.464 142.282C320.891 139.995 322.276 137.739 323.621 135.565C326.332 131.216 328.828 127.154 330.937 123.693C335.176 116.782 337.967 112.219 337.967 112.219ZM331.395 180.522C336.225 179.716 340.912 178.317 345.354 176.408C349.766 174.52 353.944 172.1 357.866 169.252C361.799 166.496 365.467 163.291 368.779 159.687C370.45 157.901 372.039 156.002 373.547 153.991C375.065 151.99 376.492 149.897 377.806 147.692C379.141 145.467 380.221 143.374 381.067 141.414C381.912 139.454 382.524 137.637 382.921 135.943C383.716 132.574 383.583 129.767 382.544 127.572C381.495 125.367 379.538 123.785 376.696 122.866C373.843 121.937 370.063 121.692 365.478 122.151C360.791 122.641 356.043 123.815 351.345 125.581C346.618 127.399 342.012 129.859 337.631 132.88C333.26 135.933 329.083 139.495 325.272 143.476C323.367 145.487 321.563 147.59 319.882 149.795C318.201 151.99 316.632 154.277 315.215 156.635C313.82 158.962 312.719 161.137 311.894 163.148C311.099 165.149 310.579 166.996 310.315 168.67C309.825 172.019 310.386 174.724 311.894 176.745C313.402 178.756 315.817 180.114 319.108 180.757C320.738 181.084 322.582 181.226 324.64 181.196C326.698 181.155 328.95 180.93 331.395 180.522ZM356.583 136.382C360.944 135.871 363.481 136.902 364.255 139.138C365.029 141.374 364.061 144.814 361.443 149.142C358.794 153.552 355.482 157.339 351.692 160.249C347.922 163.199 343.632 165.22 339.149 165.945C334.656 166.69 331.966 165.812 331.049 163.607C330.142 161.402 331.059 157.839 333.739 153.256C336.398 148.734 339.903 144.783 343.836 141.792C347.759 138.842 352.13 136.933 356.583 136.382ZM391.969 173.672C396.187 173.458 400.324 172.6 404.287 171.182C408.21 169.773 411.96 167.792 415.465 165.291C419.01 162.78 422.332 159.748 425.379 156.247C426.897 154.501 428.344 152.623 429.719 150.643C431.084 148.662 432.368 146.57 433.55 144.375C434.742 142.149 435.741 140.047 436.535 138.056C437.34 136.076 437.921 134.218 438.298 132.492C439.072 129.042 439.022 126.122 438.176 123.795C437.33 121.457 435.7 119.712 433.316 118.609C430.921 117.507 427.742 117.047 423.83 117.282C419.856 117.537 415.801 118.456 411.848 119.926C407.864 121.416 403.88 123.489 400.039 126.102C396.167 128.715 392.458 131.849 389.055 135.443C387.333 137.229 385.703 139.138 384.174 141.159C382.656 143.17 381.23 145.294 379.905 147.519C378.591 149.714 377.521 151.786 376.675 153.726C375.84 155.665 375.249 157.482 374.892 159.146C374.21 162.494 374.434 165.291 375.544 167.507C376.665 169.732 378.632 171.376 381.403 172.417C382.778 172.937 384.348 173.315 386.11 173.519C387.873 173.723 389.829 173.785 391.969 173.672ZM415.862 131.267C419.52 131.063 421.619 132.298 422.189 134.657C422.77 137.015 421.853 140.485 419.428 144.763C416.973 149.111 413.926 152.735 410.543 155.308C407.13 157.89 403.36 159.452 399.488 159.667C395.637 159.901 393.416 158.676 392.774 156.329C392.142 153.981 393.11 150.49 395.637 146.161C398.164 141.874 401.333 138.28 404.838 135.677C408.322 133.084 412.102 131.502 415.862 131.267ZM473.532 101.796C473.532 101.796 470.2 101.817 466.858 101.847C463.516 101.888 460.143 101.939 460.143 101.939C460.143 101.939 457.861 106.237 454.387 112.688C452.624 115.914 450.576 119.691 448.375 123.744C447.285 125.765 446.144 127.848 444.982 129.981C443.821 132.105 442.628 134.269 441.447 136.423C440.265 138.587 439.083 140.751 437.921 142.874C436.78 144.997 435.68 147.09 434.6 149.101C432.439 153.144 430.412 156.91 428.69 160.136C425.307 166.567 423.086 170.855 423.086 170.855C423.086 170.855 426.683 170.753 430.259 170.651C433.815 170.569 437.34 170.477 437.34 170.477C437.34 170.477 440.04 165.169 442.771 159.85C445.492 154.532 448.243 149.213 448.243 149.213L448.844 149.203C448.844 149.203 449.129 150.52 449.547 152.501C449.964 154.481 450.555 157.104 451.167 159.728C451.799 162.362 452.43 164.985 452.909 166.955C453.388 168.926 453.714 170.242 453.714 170.242C453.714 170.242 457.708 170.222 461.661 170.232C465.584 170.242 469.476 170.253 469.476 170.253L469.578 170.038C469.578 170.038 469.11 168.364 468.427 165.863C468.091 164.607 467.703 163.148 467.286 161.586C466.868 160.014 466.43 158.35 465.992 156.686C465.564 155.022 465.146 153.358 464.759 151.796C464.372 150.234 464.005 148.775 463.699 147.529C463.098 145.028 462.701 143.364 462.701 143.364C462.701 143.364 464.759 141.731 467.856 139.271C469.395 138.046 471.188 136.627 473.114 135.096C475.029 133.574 477.067 131.951 479.115 130.338C481.122 128.726 483.14 127.113 485.045 125.602C486.95 124.101 488.713 122.703 490.221 121.508C493.217 119.109 495.214 117.517 495.214 117.517L495.326 117.303C495.326 117.303 491.627 117.262 487.898 117.241C484.138 117.221 480.368 117.221 480.368 117.221C480.368 117.221 478.809 118.507 476.446 120.437C474.092 122.386 470.913 124.989 467.734 127.592C464.535 130.216 461.325 132.84 458.921 134.82C456.496 136.79 454.886 138.107 454.886 138.107L454.081 138.117C454.081 138.117 455.304 135.841 457.138 132.421C458.055 130.706 459.124 128.715 460.266 126.572C461.417 124.438 462.65 122.162 463.872 119.885C465.105 117.609 466.328 115.343 467.459 113.219C468.58 111.096 469.639 109.116 470.546 107.421C472.339 104.042 473.532 101.796 473.532 101.796ZM512.718 112.025L517.619 102.307C517.619 102.307 514.42 102.154 511.19 102.052C507.94 101.97 504.669 101.919 504.669 101.919L499.656 111.76C499.656 111.76 502.968 111.8 506.228 111.872C509.488 111.943 512.718 112.025 512.718 112.025ZM483.486 170.396C483.486 170.396 485.025 167.088 487.378 162.127C488.56 159.636 489.946 156.737 491.464 153.623C492.993 150.51 494.623 147.202 496.263 143.885C497.944 140.588 499.636 137.29 501.215 134.197C502.804 131.114 504.272 128.236 505.545 125.765C508.052 120.835 509.733 117.558 509.733 117.558C509.733 117.558 506.595 117.476 503.436 117.415C500.267 117.354 497.078 117.313 497.078 117.313C497.078 117.313 495.387 120.61 492.809 125.551C491.525 128.021 490.017 130.91 488.407 134.003C486.818 137.107 485.116 140.424 483.425 143.752C481.744 147.07 480.083 150.398 478.534 153.511C476.996 156.625 475.58 159.524 474.367 162.004C471.993 166.966 470.414 170.263 470.414 170.263C470.414 170.263 473.705 170.293 476.986 170.314C480.266 170.355 483.486 170.396 483.486 170.396ZM516.356 139.771C517.854 136.78 519.739 134.422 521.858 132.85C523.987 131.267 526.351 130.461 528.766 130.583C531.303 130.767 532.556 131.88 532.821 133.605C533.086 135.33 532.403 137.678 531.069 140.353C531.069 140.353 530.131 142.272 528.735 145.151C527.36 148.029 525.526 151.878 523.712 155.716C521.899 159.565 520.116 163.403 518.811 166.302C517.497 169.201 516.641 171.131 516.641 171.131C516.641 171.131 519.688 171.243 522.693 171.365C525.679 171.498 528.685 171.621 528.685 171.621C528.685 171.621 529.652 169.426 531.13 166.149C531.874 164.505 532.76 162.596 533.708 160.545C534.635 158.493 535.654 156.308 536.673 154.113C537.692 151.929 538.731 149.765 539.719 147.774C540.728 145.784 541.655 143.946 542.491 142.405C544.162 139.332 545.272 137.3 545.272 137.3C546.77 134.748 547.911 132.401 548.604 130.277C549.317 128.154 549.613 126.255 549.419 124.632C549.225 123.009 548.553 121.651 547.34 120.62C546.128 119.589 544.386 118.895 542.032 118.568C538.568 118.109 534.991 118.66 531.334 120.773C529.489 121.866 527.604 123.336 525.679 125.296C523.804 127.317 521.878 129.808 519.902 132.809L519.81 132.799C519.81 132.799 521.624 129.124 523.447 125.459C525.281 121.825 527.156 118.303 527.156 118.303C527.156 118.303 524.079 118.068 521.012 117.895C517.966 117.782 514.899 117.691 514.899 117.691C514.899 117.691 513.228 120.967 510.742 125.898C509.488 128.358 508.031 131.237 506.473 134.32C504.914 137.392 503.243 140.69 501.582 143.987C499.931 147.284 498.311 150.602 496.793 153.705C495.285 156.808 493.889 159.708 492.717 162.198C490.394 167.17 488.876 170.477 488.876 170.477C488.876 170.477 492.086 170.528 495.265 170.579C498.444 170.641 501.572 170.712 501.572 170.712C501.572 170.712 502.438 168.762 503.772 165.853C505.128 162.944 506.962 159.064 508.785 155.195C510.66 151.337 512.566 147.478 513.992 144.589C515.408 141.7 516.356 139.771 516.356 139.771ZM570.266 136.076C572.935 136.525 574.504 137.392 575.146 138.617C575.798 139.842 575.503 141.404 574.392 143.231C572.283 146.682 568.88 148.662 563.205 147.764C557.56 146.917 557.152 144.191 559.211 140.771C561.34 137.27 564.692 135.147 570.266 136.076ZM548.074 178.572C545.669 178.429 543.764 178.246 542.287 178.001C540.799 177.756 539.76 177.439 539.077 177.041C537.712 176.235 537.732 175.081 538.456 173.427C539.383 171.335 541.94 169.558 545.282 169.732C545.282 169.732 549.022 169.957 552.781 170.222C556.582 170.549 560.393 170.937 560.393 170.937C563.184 171.263 563.439 172.805 562.532 174.673C561.758 176.306 560.688 177.439 558.528 178.052C557.458 178.378 556.123 178.572 554.422 178.664C552.72 178.756 550.632 178.725 548.074 178.572ZM544.049 189.281C545.985 189.403 547.789 189.434 549.49 189.352C551.192 189.281 552.771 189.117 554.238 188.852C557.183 188.331 559.73 187.443 561.921 186.208C564.142 185.024 566.027 183.544 567.637 181.788C569.277 180.052 570.622 178.041 571.753 175.775C573.801 171.855 574.576 168.599 573.638 166.128C573.18 164.893 572.263 163.852 570.836 163.015C569.42 162.178 567.504 161.565 565.059 161.208C562.838 160.912 560.392 160.728 557.906 160.565C555.43 160.412 552.914 160.279 550.499 160.044C548.349 159.85 547.799 159.136 548.624 157.441C548.95 156.808 549.531 156.206 550.295 155.41L551.487 154.328C553.26 155.185 555.461 155.777 558.151 156.104C560.984 156.472 563.684 156.594 566.231 156.461C568.778 156.349 571.132 155.941 573.261 155.267C577.52 153.909 580.883 151.378 583.134 147.641C584.714 145.008 584.917 143.048 584.255 141.516C583.583 139.995 582.034 138.913 580.088 138.056L580.23 137.964C582.768 138.505 584.754 138.954 586.629 139.271L591.418 140.108C591.418 140.108 593.007 137.382 594.577 134.667C596.135 131.941 597.684 129.216 597.684 129.216C597.684 129.216 596.39 128.981 594.444 128.634C592.488 128.287 589.879 127.817 587.271 127.358C584.652 126.888 582.075 126.439 580.129 126.102C578.172 125.755 576.858 125.53 576.858 125.53C573.964 125.03 571.142 124.949 568.421 125.245C565.701 125.541 563.113 126.225 560.729 127.296C558.324 128.368 556.083 129.828 554.075 131.655C552.058 133.483 550.265 135.667 548.767 138.199C546.648 141.925 545.832 145.191 546.199 147.866C546.617 150.541 548.196 152.613 550.815 154.042L546.862 154.961C542.042 156.043 538.782 159.034 537.416 162.004C536.581 163.872 536.398 165.526 537.039 166.812C537.691 168.099 539.169 169.017 541.645 169.426C538.13 169.752 535.073 170.732 532.648 172.192C530.213 173.662 528.43 175.612 527.462 177.888C526.117 181.104 526.168 183.789 528.623 185.738C529.836 186.708 531.629 187.504 534.166 188.097C535.43 188.403 536.876 188.648 538.527 188.842C540.167 189.046 542.001 189.189 544.049 189.281ZM629.229 134.034C631.165 130.379 633.621 129.062 636.708 129.583C637.982 129.797 639.214 130.093 640.437 130.594L645.817 121.774C644.401 121.131 642.77 120.539 639.734 119.998C637.268 119.559 634.935 119.559 632.755 119.947C630.564 120.324 628.526 121.08 626.651 122.162C624.777 123.244 623.055 124.653 621.516 126.327C619.967 128.011 618.602 129.951 617.441 132.105L617.074 132.768L611.582 131.768C611.582 131.768 610.084 134.473 608.566 137.178C607.048 139.883 605.509 142.588 605.509 142.588L611.103 143.558C611.103 143.558 609.901 145.692 608.087 148.877C607.18 150.469 606.121 152.337 604.979 154.328C603.828 156.318 602.595 158.442 601.352 160.575C600.109 162.699 598.876 164.822 597.704 166.812C596.533 168.803 595.443 170.671 594.505 172.264C592.61 175.449 591.357 177.572 591.357 177.572C591.357 177.572 594.546 177.99 597.735 178.399C600.934 178.797 604.124 179.195 604.124 179.195C604.124 179.195 605.326 177.092 607.119 173.938C608.016 172.366 609.055 170.518 610.176 168.548C611.286 166.578 612.489 164.475 613.671 162.362C614.863 160.259 616.034 158.146 617.145 156.165C618.245 154.195 619.275 152.347 620.151 150.765C621.903 147.601 623.055 145.487 623.055 145.487L631.929 146.825C631.929 146.825 633.346 144.171 634.752 141.516C636.158 138.852 637.543 136.198 637.543 136.198L628.832 134.789L629.229 134.034ZM637.238 184.115C640.814 184.462 644.299 184.228 647.63 183.462C650.932 182.696 654.07 181.4 656.974 179.614C659.857 177.837 662.517 175.571 664.86 172.866C666.032 171.508 667.132 170.048 668.141 168.476C669.15 166.915 670.077 165.24 670.902 163.474C671.748 161.678 672.41 159.963 672.909 158.34C673.409 156.706 673.735 155.165 673.887 153.715C674.213 150.806 673.898 148.254 672.96 146.1C672.023 143.936 670.495 142.18 668.385 140.853C666.276 139.526 663.597 138.638 660.377 138.219C657.147 137.79 653.958 137.903 650.85 138.556C647.722 139.209 644.686 140.404 641.802 142.119C638.899 143.844 636.147 146.08 633.631 148.805C632.357 150.173 631.155 151.653 630.014 153.256C628.862 154.869 627.793 156.584 626.794 158.421C625.806 160.238 624.991 161.984 624.359 163.648C623.727 165.312 623.279 166.894 623.004 168.395C622.443 171.386 622.637 174.009 623.544 176.224C624.471 178.429 626.091 180.226 628.384 181.563C629.535 182.227 630.849 182.778 632.327 183.207C633.794 183.636 635.444 183.942 637.238 184.115ZM654.753 149.601C657.799 149.969 659.653 151.357 660.316 153.532C660.988 155.706 660.489 158.656 658.787 162.117C657.045 165.628 654.732 168.436 652.042 170.283C649.322 172.131 646.235 173.009 642.974 172.672C639.754 172.335 637.869 170.916 637.248 168.701C636.626 166.486 637.289 163.464 639.143 159.922C640.967 156.42 643.331 153.654 646.01 151.857C648.68 150.061 651.655 149.224 654.753 149.601ZM676.771 186.3C676.771 186.3 677.331 185.024 678.177 183.115C679.023 181.206 680.154 178.664 681.285 176.112C682.416 173.57 683.547 171.018 684.402 169.109C685.248 167.2 685.819 165.935 685.819 165.935C687.245 162.729 688.692 160.698 690.628 159.554C692.564 158.401 694.968 158.135 698.341 158.421L702.875 158.809C702.875 158.809 704.352 155.308 705.82 151.806C707.287 148.305 708.744 144.804 708.744 144.804L706.798 144.63C703.986 144.365 701.51 144.722 698.779 146.733C697.414 147.733 695.977 149.162 694.408 151.133C692.829 153.103 691.107 155.614 689.161 158.819L688.987 158.799C688.987 158.799 690.679 154.991 692.38 151.184C694.072 147.366 695.753 143.548 695.753 143.548C695.753 143.548 692.819 143.252 689.884 142.946C686.95 142.619 684.005 142.303 684.005 142.303C684.005 142.303 682.782 144.987 680.938 149.02C680.011 151.031 678.931 153.378 677.759 155.9C676.598 158.421 675.344 161.106 674.091 163.791C672.838 166.476 671.575 169.16 670.382 171.682C669.2 174.193 668.11 176.541 667.173 178.552C665.308 182.574 664.075 185.259 664.075 185.259C664.075 185.259 667.254 185.524 670.433 185.79C673.602 186.045 676.771 186.3 676.771 186.3Z" fill="#FBFBFB"/>
</svg>
