<svg fill="none" height="266" viewBox="0 0 192 266" width="192" xmlns="http://www.w3.org/2000/svg"><path d="m148.301 245.71c-5.691 2.672-11.834 4.234-18.08 4.597-6.247.363-12.473-.481-18.324-2.483s-11.213-5.123-15.7781-9.185c-4.5654-4.062-8.2454-8.985-10.83-14.488l-65.6725-140.8694c-5.2026-11.1597-5.6089-24-1.1295-35.6963 4.4794-11.6962 13.4775-21.2903 25.0149-26.6716 11.5374-5.3813 24.669-6.109 36.506-2.023s21.4092 12.6509 26.6122 23.8107l65.673 140.8686c2.553 5.518 3.958 11.503 4.134 17.612.177 6.109-.879 12.223-3.107 17.993-2.228 5.771-5.584 11.084-9.877 15.636-4.293 4.553-9.438 8.256-15.142 10.899z" fill="#ffc09f"/></svg>