<svg fill="none" height="104" viewBox="0 0 96 104" width="96" xmlns="http://www.w3.org/2000/svg"><path d="m44.1365 103.073c-5.6781.02-11.3046-1.051-16.5567-3.1541-5.3768-2.1195-10.272-5.2509-14.4057-9.2152-4.13367-3.9643-7.42479-8.6837-9.68512-13.8883s-3.4455239-10.7922-3.48780721-16.4435c-.04228329-5.6512 1.05917721-11.2551 3.24138721-16.4912 2.98769-6.7319 5.78864-13.5851 9.21204-19.6498 5.0888-10.2259 14.136-18.06512 25.1536-21.7951 11.0176-3.72999 23.1043-3.045619 33.6043 1.90272 10.5088 4.9933 18.5546 13.84588 22.3707 24.61398s3.0906 22.5717-2.0171 32.8192c-2.303 4.6698-4.4816 9.461-6.5356 14.3128-3.2558 7.9733-8.8955 14.8094-16.1873 19.6217-7.2919 4.8128-15.8996 7.3788-24.7067 7.3668zm7.7805-66.7126c-.7205.014-1.4344.1367-2.1163.3639-.8425.288-1.6177.7367-2.2803 1.3198-.6625.5831-1.1993 1.289-1.5788 2.0764-2.801 5.6402-5.4774 11.4624-7.9672 17.4058-.6575 1.6175-.6342 3.4222.0649 5.023s2.0176 2.8685 3.6697 3.5283c.8062.335 1.6758.5003 2.552.4852 1.3395-.0119 2.6453-.4099 3.753-1.1438s1.9676-1.7709 2.4714-2.9802c2.3652-5.6402 4.9172-11.2198 7.5937-16.5568.4921-1.0147.7136-2.1339.6439-3.2542-.0697-1.1202-.4283-2.2052-1.0427-3.1546-.6144-.9493-1.4646-1.7323-2.4721-2.2764-1.0074-.5441-2.1394-.8318-3.2912-.8364z" fill="#fcf5c7"/></svg>