<svg fill="none" height="155" viewBox="0 0 128 155" width="128" xmlns="http://www.w3.org/2000/svg"><path d="m35.6874 150.724c-6.755-2.44-12.9479-6.152-18.2239-10.921s-9.53144-10.503-12.52252-16.873c-2.99107-6.369-4.658989-13.25-4.9082121-20.246-.2492229-6.9972.9251541-13.973 3.4558521-20.5281l18.24418-47.3914c2.5125-6.5618 6.3331-12.5775 11.2429-17.7026 4.9099-5.1251 10.8124-9.25884 17.3696-12.16435s13.64-4.525725 20.8428-4.767819c7.2029-.242094 14.3841.898689 21.1323 3.356999 6.7528 2.44354 12.9436 6.15654 18.2176 10.92657 5.274 4.77 9.528 10.5033 12.519 16.872 2.99 6.3687 4.659 13.2477 4.91 20.2435.251 6.9957-.921 13.9709-3.448 20.5264l-18.217 47.4708c-2.526 6.553-6.357 12.559-11.2734 17.674-4.9165 5.115-10.8222 9.239-17.3798 12.136-6.5577 2.897-13.6387 4.511-20.8385 4.749-7.1999.239-14.3775-.903-21.1229-3.361z" fill="#ffc09f"/></svg>