<svg fill="none" height="264" viewBox="0 0 256 264" width="256" xmlns="http://www.w3.org/2000/svg"><path d="m247.795 263.031c-1.814-.007-3.577-.585-5.027-1.646-17.849-12.791-15.081-33.54-12.596-51.93 2.486-18.389 3.333-29.972-5.648-36.504s-20.335-2.306-37.619 5.489-36.884 16.468-54.79 3.678c-17.905-12.79-15.025-33.54-12.596-51.929s3.333-29.917-5.648-36.5044c-8.981-6.5872-20.3348-2.3055-37.619 5.4894-17.2843 7.795-36.8844 16.468-54.79 3.733-17.90561-12.7356-15.36381-33.6501-12.93498-51.9845 2.42888-18.3345 3.33258-29.972-5.64845-36.5043-1.58309-1.3525-2.590562-3.23-2.8256765-5.26569-.2351155-2.0357.3190155-4.08348 1.5541765-5.74342 1.23516-1.65995 3.06265-2.812846 5.12557-3.233551 2.06292-.420704 4.21316-.0790014 6.03076.958381 17.8491 12.79018 15.0813 33.59488 12.596 51.92938s-3.3326 29.9719 5.6485 36.5043c8.981 6.5323 20.3344 2.3604 37.6187-5.4894 17.2842-7.8498 36.8844-16.4681 54.7904-3.7327 17.905 12.7353 15.081 33.5395 12.596 51.8745-2.486 18.334-3.333 29.972 5.648 36.559s20.334 2.306 37.675-5.489 36.885-16.468 54.734-3.733 15.081 33.595 12.652 51.929c-2.429 18.335-3.332 29.972 5.649 36.56 1.461.989 2.564 2.4 3.153 4.033.588 1.634.633 3.406.126 5.065-.506 1.659-1.538 3.121-2.948 4.177-1.41 1.057-3.127 1.656-4.907 1.71z" fill="#adf7b6"/></svg>