<svg fill="none" height="65" viewBox="0 0 69 65" width="69" xmlns="http://www.w3.org/2000/svg"><path d="m68.9998 34.7304c.014 3.7859-.7039 7.5374-2.1124 11.0392-1.4197 3.5849-3.5172 6.8488-6.1726 9.6049s-5.8165 4.9505-9.3026 6.4576c-3.4862 1.507-7.2289 2.2972-11.0143 2.3254-3.7853.0282-7.5389-.7062-11.0462-2.1611-4.5091-1.9921-9.0996-3.8596-13.1619-6.1421-6.84951-3.393-12.10038-9.4252-14.5988-16.7711-2.498432-7.3459-2.040028-15.4047 1.27448-22.4055 3.34463-7.00678 9.27422-12.37124 16.48702-14.91562 7.2127-2.544369 15.119-2.060673 21.983 1.34488 3.128 1.53552 6.3372 2.98805 9.587 4.35756 5.3408 2.17084 9.9198 5.93098 13.1431 10.79288 3.2234 4.8618 4.9425 10.601 4.9342 16.473zm-44.6853-5.1875c.0093.4803.0915.9563.2437 1.411.1929.5617.4934 1.0786.884 1.5203.3906.4418.8634.7997 1.3909 1.0527 3.7779 1.8676 7.6777 3.6521 11.6588 5.3121 1.0834.4384 2.2923.4229 3.3645-.0432 1.0722-.4662 1.9214-1.3453 2.3633-2.4468.2244-.5375.3352-1.1173.325-1.7016-.008-.893-.2746-1.7637-.7661-2.5022-.4916-.7386-1.1862-1.3119-1.9962-1.6478-3.778-1.577-7.5153-3.2786-11.0901-5.0631-.6797-.3281-1.4294-.4758-2.1798-.4293-.7504.0464-1.4771.2856-2.113.6952s-1.1603.9765-1.5248 1.6482-.5572 1.4265-.5602 2.1945z" fill="#adf7b6"/></svg>