<svg width="172" height="172" viewBox="0 0 172 172" fill="none" xmlns="http://www.w3.org/2000/svg">
<path fill-rule="evenodd" clip-rule="evenodd" d="M171 85.9997L170.987 85.9998L170.949 86.0004L170.885 86.002L170.796 86.0051L170.682 86.0103L170.542 86.018L170.377 86.0288L170.187 86.0431L169.972 86.0614L169.732 86.0843L169.468 86.1121L169.179 86.1455L168.866 86.1849L168.529 86.2306L168.169 86.2833L167.784 86.3434L167.377 86.4113L166.946 86.4874L166.493 86.5723L166.018 86.6662L165.52 86.7697L165.001 86.8831L164.46 87.0068L163.899 87.1413L163.317 87.2869L162.714 87.4439L162.092 87.6127L161.451 87.7937L160.791 87.9871L160.112 88.1934L159.415 88.4127L158.701 88.6455L157.97 88.8919L157.222 89.1522L156.458 89.4267L155.679 89.7156L154.885 90.0191L154.076 90.3374L153.254 90.6708L152.418 91.0193L151.569 91.3832L150.708 91.7625L149.835 92.1575L148.952 92.5682L148.057 92.9946L147.153 93.437L146.24 93.8953L145.317 94.3697L144.387 94.86L143.449 95.3663L142.504 95.8887L141.553 96.4271L140.596 96.9814L139.634 97.5516L138.667 98.1377L137.696 98.7394L136.723 99.3568L135.746 99.9897L134.767 100.638L133.787 101.301L132.806 101.98L131.824 102.673L130.843 103.381L129.863 104.104L128.884 104.84L127.907 105.59L126.933 106.354L125.961 107.132L124.994 107.922L124.031 108.725L123.072 109.541L122.119 110.369L121.172 111.208L120.231 112.059L119.296 112.92L118.37 113.792L117.451 114.675L116.54 115.567L115.638 116.468L114.745 117.378L113.862 118.296L112.989 119.222L112.127 120.156L111.275 121.096L110.435 122.043L109.607 122.996L108.79 123.954L107.986 124.917L107.194 125.884L106.416 126.855L105.651 127.829L104.899 128.806L104.162 129.785L103.438 130.765L102.729 131.746L102.035 132.728L101.355 133.709L100.69 134.689L100.041 135.668L99.4068 136.645L98.7882 137.619L98.1851 138.59L97.5978 139.557L97.0263 140.519L96.4708 141.477L95.9311 142.429L95.4075 143.374L94.8998 144.313L94.4082 145.244L93.9327 146.167L93.4731 147.081L93.0294 147.986L92.6017 148.881L92.1897 149.765L91.7935 150.639L91.4129 151.501L91.0478 152.351L90.6981 153.188L90.3636 154.011L90.044 154.821L89.7393 155.616L89.4493 156.397L89.1737 157.162L88.9122 157.911L88.6648 158.643L88.4309 159.359L88.2105 160.057L88.0033 160.737L87.8088 161.399L87.6268 162.042L87.457 162.665L87.2991 163.269L87.1526 163.853L87.0173 164.416L86.8927 164.959L86.7785 165.48L86.6742 165.979L86.5796 166.456L86.494 166.911L86.4172 167.343L86.3487 167.753L86.288 168.139L86.2347 168.502L86.1884 168.84L86.1486 169.155L86.1147 169.446L86.0864 169.712L86.0632 169.954L86.0445 170.171L86.0299 170.363L86.0189 170.53L86.011 170.672L86.0056 170.788L86.0023 170.879L86.0006 170.945L85.9999 170.985L85.9998 171L85.9998 170.989L85.9992 170.953L85.9977 170.891L85.9947 170.804L85.9897 170.692L85.9822 170.554L85.9717 170.391L85.9577 170.203L85.9397 169.99L85.9173 169.752L85.8898 169.49L85.8569 169.203L85.818 168.892L85.7728 168.557L85.7206 168.198L85.6612 167.816L85.5939 167.41L85.5185 166.982L85.4343 166.53L85.3411 166.056L85.2384 165.561L85.1258 165.043L85.0029 164.504L84.8693 163.944L84.7247 163.364L84.5686 162.763L84.4007 162.143L84.2207 161.503L84.0282 160.844L83.823 160.167L83.6047 159.471L83.3731 158.759L83.1278 158.029L82.8686 157.282L82.5952 156.52L82.3075 155.742L82.0052 154.949L81.688 154.141L81.3559 153.32L81.0086 152.485L80.6459 151.637L80.2678 150.777L79.8741 149.905L79.4647 149.022L79.0394 148.129L78.5983 147.226L78.1413 146.313L77.6682 145.391L77.1792 144.461L76.6741 143.524L76.153 142.58L75.6159 141.629L75.0629 140.672L74.4939 139.71L73.9091 138.744L73.3086 137.774L72.6924 136.8L72.0608 135.824L71.4137 134.845L70.7515 133.865L70.0742 132.884L69.3821 131.903L68.6753 130.921L67.9541 129.941L67.2187 128.962L66.4694 127.985L65.7064 127.01L64.9301 126.039L64.1407 125.071L63.3385 124.107L62.5239 123.148L61.6973 122.195L60.8589 121.247L60.0091 120.305L59.1484 119.37L58.2771 118.443L57.3956 117.523L56.5045 116.612L55.604 115.709L54.6947 114.816L53.777 113.932L52.8514 113.058L51.9184 112.195L50.9784 111.343L50.032 110.502L49.0797 109.672L48.122 108.855L47.1595 108.049L46.1926 107.257L45.2219 106.477L44.248 105.711L43.2715 104.959L42.2928 104.22L41.3127 103.495L40.3316 102.785L39.3501 102.089L38.3689 101.408L37.3884 100.743L36.4094 100.092L35.4325 99.4566L34.4581 98.8367L33.487 98.2325L32.5196 97.6439L31.5567 97.0711L30.5989 96.5143L29.6467 95.9734L28.7007 95.4485L27.7616 94.9396L26.8299 94.4467L25.9063 93.9698L24.9914 93.5089L24.0857 93.064L23.1898 92.635L22.3044 92.2218L21.4299 91.8244L20.567 91.4425L19.7163 91.0762L18.8783 90.7252L18.0535 90.3895L17.2426 90.0688L16.4461 89.7629L15.6644 89.4717L14.8981 89.195L14.1478 88.9324L13.414 88.6838L12.697 88.4489L11.9975 88.2275L11.316 88.0191L10.6527 87.8237L10.0083 87.6407L9.38318 87.47L8.77772 87.3111L8.19237 87.1637L7.62752 87.0275L7.08357 86.9021L6.56089 86.7871L6.05984 86.682L5.58077 86.5866L5.12401 86.5003L4.68987 86.4229L4.27866 86.3537L3.89066 86.2924L3.52614 86.2386L3.18536 86.1917L2.86855 86.1514L2.57593 86.1171L2.30772 86.0883L2.06408 86.0647L1.8452 86.0457L1.65123 86.0308L1.4823 86.0195L1.33853 86.0113L1.22002 86.0058L1.12686 86.0024L1.05911 86.0005L1.01681 85.9998L1 85.9997L1.00869 85.9996L1.04287 85.9991L1.10252 85.9977L1.18759 85.9949L1.29804 85.99L1.43377 85.9828L1.5947 85.9725L1.78071 85.9588L1.99167 85.9412L2.22743 85.9191L2.48784 85.892L2.77271 85.8596L3.08183 85.8212L3.415 85.7765L3.77199 85.7249L4.15254 85.666L4.55638 85.5994L4.98325 85.5246L5.43284 85.4412L5.90484 85.3487L6.39892 85.2468L6.91475 85.135L7.45197 85.0129L8.0102 84.8802L8.58906 84.7364L9.18816 84.5813L9.80708 84.4143L10.4454 84.2353L11.1027 84.0439L11.7785 83.8397L12.4723 83.6224L13.1837 83.3918L13.9123 83.1476L14.6574 82.8896L15.4186 82.6173L16.1954 82.3308L16.9873 82.0296L17.7937 81.7136L18.6141 81.3827L19.448 81.0366L20.2947 80.6752L21.1538 80.2983L22.0246 79.9058L22.9066 79.4977L23.7992 79.0737L24.7019 78.6339L25.6139 78.1781L26.5348 77.7063L27.464 77.2185L28.4008 76.7147L29.3447 76.1949L30.2949 75.6591L31.2511 75.1073L32.2124 74.5396L33.1784 73.9561L34.1484 73.3568L35.1218 72.7419L36.098 72.1114L37.0764 71.4656L38.0565 70.8046L39.0375 70.1285L40.019 69.4375L41.0002 68.7319L41.9808 68.0118L42.96 67.2776L43.9372 66.5294L44.912 65.7675L45.8838 64.9922L46.8519 64.2038L47.8159 63.4026L48.7752 62.589L49.7293 61.7633L50.6777 60.9258L51.6197 60.0769L52.555 59.2171L53.483 58.3466L54.4033 57.466L55.3153 56.5755L56.2186 55.6758L57.1128 54.7672L57.9974 53.8501L58.872 52.9251L59.7361 51.9927L60.5894 51.0533L61.4315 50.1074L62.2619 49.1555L63.0804 48.1982L63.8866 47.236L64.6801 46.2695L65.4606 45.2991L66.2279 44.3254L66.9815 43.3491L67.7214 42.3706L68.4471 41.3905L69.1585 40.4094L69.8553 39.428L70.5374 38.4467L71.2044 37.4662L71.8563 36.487L72.4929 35.5099L73.114 34.5353L73.7196 33.5638L74.3094 32.5962L74.8834 31.6329L75.4415 30.6746L75.9837 29.722L76.5099 28.7755L77.0201 27.8358L77.5142 26.9035L77.9923 25.9793L78.4545 25.0636L78.9007 24.1571L79.3309 23.2604L79.7454 22.3741L80.1441 21.4988L80.5272 20.635L80.8947 19.7832L81.2469 18.9442L81.5838 18.1184L81.9058 17.3063L82.2128 16.5086L82.5051 15.7257L82.783 14.9582L83.0467 14.2066L83.2964 13.4714L83.5324 12.7531L83.7549 12.0522L83.9643 11.3692L84.1608 10.7045L84.3447 10.0586L84.5164 9.43186L84.6762 8.82482L84.8245 8.23785L84.9615 7.67135L85.0878 7.12572L85.2037 6.60134L85.3095 6.09855L85.4057 5.61771L85.4926 5.15916L85.5708 4.72321L85.6406 4.31016L85.7025 3.9203L85.7569 3.55391L85.8043 3.21122L85.8452 2.8925L85.8799 2.59795L85.9091 2.32778L85.9331 2.08218L85.9525 1.86132L85.9677 1.66536L85.9792 1.49443L85.9876 1.34865L85.9934 1.22813L85.9969 1.13294L85.9989 1.06317L85.9997 1.01884L85.9998 1L85.9999 1.00666L86.0003 1.03881L86.0016 1.09643L86.0044 1.17948L86.009 1.28791L86.0161 1.42163L86.026 1.58056L86.0395 1.76457L86.0568 1.97356L86.0785 2.20735L86.1051 2.46581L86.1372 2.74873L86.175 3.05593L86.2193 3.3872L86.2703 3.7423L86.3285 4.12098L86.3945 4.52298L86.4686 4.94803L86.5513 5.39582L86.6431 5.86605L86.7442 6.35839L86.8552 6.8725L86.9765 7.40803L87.1083 7.9646L87.2512 8.54184L87.4055 9.13934L87.5714 9.7567L87.7495 10.3935L87.9399 11.0493L88.1431 11.7236L88.3593 12.416L88.5888 13.1261L88.8319 13.8533L89.0889 14.5971L89.36 15.3571L89.6454 16.1327L89.9454 16.9234L90.2602 17.7286L90.5899 18.5479L90.9348 19.3807L91.295 20.2265L91.6706 21.0846L92.0618 21.9545L92.4688 22.8356L92.8915 23.7274L93.33 24.6293L93.7845 25.5406L94.255 26.4609L94.7415 27.3894L95.244 28.3256L95.7626 29.2689L96.2971 30.2187L96.8477 31.1744L97.4141 32.1354L97.9964 33.101L98.5944 34.0707L99.2081 35.0438L99.8373 36.0199L100.482 36.9981L101.142 37.9781L101.817 38.9591L102.506 39.9405L103.211 40.9218L103.93 41.9024L104.663 42.8818L105.41 43.8592L106.171 44.8342L106.945 45.8063L107.732 46.7747L108.533 47.7391L109.345 48.6988L110.17 49.6533L111.007 50.6021L111.854 51.5447L112.713 52.4805L113.583 53.4091L114.463 54.33L115.353 55.2427L116.252 56.1468L117.16 57.0417L118.076 57.9271L119 58.8025L119.932 59.6674L120.871 60.5216L121.816 61.3646L122.768 62.196L123.725 63.0154L124.687 63.8226L125.653 64.6171L126.623 65.3987L127.596 66.167L128.572 66.9218L129.551 67.6628L130.531 68.3896L131.512 69.1022L132.493 69.8002L133.475 70.4834L134.455 71.1517L135.434 71.8048L136.412 72.4426L137.387 73.0649L138.358 73.6717L139.326 74.2628L140.29 74.838L141.249 75.3974L142.202 75.9409L143.149 76.4684L144.089 76.9798L145.022 77.4753L145.947 77.9547L146.863 78.4181L147.77 78.8655L148.668 79.2971L149.555 79.7128L150.431 80.1127L151.296 80.497L152.149 80.8658L152.989 81.2192L153.816 81.5574L154.629 81.8805L155.428 82.1887L156.212 82.4822L156.981 82.7613L157.733 83.0261L158.47 83.2769L159.19 83.5139L159.892 83.7375L160.576 83.9479L161.243 84.1454L161.89 84.3303L162.518 84.503L163.127 84.6637L163.715 84.8129L164.284 84.9509L164.831 85.078L165.357 85.1947L165.861 85.3012L166.344 85.3982L166.804 85.4859L167.242 85.5647L167.657 85.6352L168.049 85.6977L168.417 85.7527L168.762 85.8006L169.082 85.842L169.379 85.8772L169.651 85.9068L169.898 85.9312L170.121 85.9509L170.319 85.9664L170.492 85.9783L170.64 85.9869L170.762 85.9928L170.86 85.9966L170.931 85.9986L170.978 85.9995L170.999 85.9997H171Z" stroke="#ADF7B6"/>
</svg>
