<svg width="72" height="72" viewBox="0 0 72 72" fill="none" xmlns="http://www.w3.org/2000/svg">
<path fill-rule="evenodd" clip-rule="evenodd" d="M71 35.9999L70.9948 35.9999L70.979 36.0001L70.9528 36.0008L70.9161 36.0021L70.8689 36.0042L70.8114 36.0074L70.7435 36.0118L70.6653 36.0177L70.5768 36.0253L70.4781 36.0347L70.3692 36.0462L70.2503 36.0599L70.1215 36.0761L69.9827 36.095L69.8342 36.1167L69.6759 36.1414L69.5081 36.1694L69.3308 36.2007L69.1442 36.2356L68.9484 36.2743L68.7436 36.3169L68.5297 36.3636L68.3071 36.4146L68.0759 36.4699L67.8362 36.5299L67.5882 36.5945L67.3321 36.6641L67.068 36.7386L66.7961 36.8182L66.5167 36.9032L66.2298 36.9935L65.9357 37.0893L65.6346 37.1908L65.3268 37.298L65.0123 37.411L64.6914 37.5299L64.3644 37.6549L64.0314 37.786L63.6927 37.9233L63.3485 38.0668L62.999 38.2166L62.6445 38.3728L62.2851 38.5354L61.9213 38.7045L61.553 38.8801L61.1807 39.0623L60.8046 39.251L60.4248 39.4463L60.0417 39.6482L59.6555 39.8567L59.2664 40.0718L58.8747 40.2935L58.4806 40.5218L58.0845 40.7565L57.6864 40.9979L57.2868 41.2457L56.8858 41.4999L56.4836 41.7605L56.0806 42.0274L55.677 42.3006L55.273 42.58L54.8689 42.8654L54.4649 43.157L54.0612 43.4544L53.6581 43.7577L53.2558 44.0666L52.8546 44.3812L52.4547 44.7014L52.0563 45.0268L51.6597 45.3575L51.265 45.6934L50.8725 46.0342L50.4824 46.3798L50.0949 46.73L49.7103 47.0848L49.3286 47.4439L48.9502 47.8072L48.5753 48.1744L48.2039 48.5455L47.8363 48.9202L47.4727 49.2984L47.1133 49.6797L46.7582 50.0642L46.4075 50.4514L46.0615 50.8413L45.7204 51.2336L45.3841 51.6281L45.053 52.0246L44.7271 52.4229L44.4066 52.8227L44.0915 53.2238L43.7821 53.626L43.4784 54.029L43.1805 54.4327L42.8885 54.8367L42.6025 55.2408L42.3227 55.6448L42.049 56.0485L41.7816 56.4516L41.5204 56.8538L41.2657 57.2549L41.0174 57.6547L40.7756 58.0528L40.5403 58.4492L40.3115 58.8434L40.0893 59.2353L39.8737 59.6246L39.6646 60.0111L39.4622 60.3944L39.2664 60.7745L39.0771 61.1509L38.8945 61.5235L38.7183 61.8921L38.5487 62.2563L38.3856 62.616L38.2289 62.9709L38.0785 63.3208L37.9345 63.6655L37.7968 64.0046L37.6652 64.3381L37.5397 64.6656L37.4203 64.987L37.3068 65.302L37.1992 65.6104L37.0973 65.912L37.001 66.2067L36.9102 66.4941L36.8249 66.7742L36.7448 67.0467L36.6699 67.3114L36.6 67.5681L36.5349 67.8168L36.4746 68.0572L36.4189 68.2891L36.3676 68.5124L36.3206 68.7269L36.2776 68.9325L36.2386 69.129L36.2034 69.3164L36.1718 69.4944L36.1436 69.6629L36.1186 69.8219L36.0967 69.9713L36.0776 70.1108L36.0612 70.2405L36.0472 70.3602L36.0356 70.4698L36.026 70.5693L36.0183 70.6586L36.0123 70.7377L36.0078 70.8064L36.0045 70.8648L36.0023 70.9127L36.001 70.9503L36.0003 70.9773L36 70.9939L35.9999 71L35.9999 70.9956L35.9997 70.9807L35.9991 70.9553L35.9978 70.9194L35.9958 70.8731L35.9927 70.8164L35.9884 70.7493L35.9826 70.6719L35.9752 70.5842L35.9659 70.4863L35.9546 70.3783L35.9411 70.2602L35.9251 70.1321L35.9064 69.9941L35.885 69.8464L35.8605 69.6889L35.8328 69.5219L35.8017 69.3453L35.7671 69.1595L35.7287 68.9644L35.6864 68.7602L35.6401 68.5471L35.5894 68.3252L35.5344 68.0947L35.4749 67.8556L35.4106 67.6083L35.3415 67.3528L35.2673 67.0893L35.1881 66.8181L35.1036 66.5392L35.0137 66.2529L34.9183 65.9594L34.8173 65.6589L34.7106 65.3515L34.598 65.0376L34.4796 64.7172L34.3551 64.3906L34.2245 64.0581L34.0877 63.7199L33.9447 63.3761L33.7954 63.027L33.6397 62.6729L33.4776 62.3139L33.309 61.9504L33.1339 61.5825L32.9523 61.2105L32.7641 60.8347L32.5693 60.4552L32.3679 60.0723L32.1599 59.6863L31.9454 59.2975L31.7242 58.906L31.4965 58.5121L31.2622 58.1161L31.0214 57.7182L30.7741 57.3187L30.5204 56.9177L30.2603 56.5157L29.9939 56.1127L29.7212 55.7092L29.4423 55.3052L29.1573 54.901L28.8663 54.497L28.5693 54.0933L28.2665 53.6901L27.958 53.2878L27.6438 52.8865L27.3242 52.4865L26.9991 52.088L26.6688 51.6912L26.3334 51.2963L25.993 50.9036L25.6478 50.5134L25.2979 50.1257L24.9435 49.7408L24.5847 49.3589L24.2217 48.9802L23.8548 48.605L23.484 48.2333L23.1096 47.8654L22.7317 47.5015L22.3506 47.1417L21.9664 46.7862L21.5794 46.4352L21.1897 46.0889L20.7975 45.7473L20.4032 45.4107L20.0068 45.0792L19.6087 44.7528L19.209 44.4319L18.808 44.1164L18.4059 43.8065L18.0029 43.5023L17.5993 43.2039L17.1954 42.9115L16.7912 42.625L16.3872 42.3447L15.9835 42.0705L15.5804 41.8026L15.1781 41.541L14.7769 41.2857L14.377 41.0369L13.9787 40.7945L13.5822 40.5587L13.1878 40.3294L12.7957 40.1067L12.4062 39.8905L12.0195 39.681L11.6359 39.478L11.2556 39.2817L10.8788 39.0919L10.5059 38.9087L10.137 38.7321L9.77238 38.5619L9.41231 38.3983L9.05701 38.241L8.70671 38.0902L8.36165 37.9457L8.02205 37.8074L7.68814 37.6754L7.36014 37.5494L7.03828 37.4295L6.72277 37.3156L6.41381 37.2075L6.11164 37.1051L5.81643 37.0084L5.5284 36.9172L5.24775 36.8314L4.97465 36.7509L4.70931 36.6756L4.4519 36.6053L4.20259 36.5399L3.96156 36.4792L3.72898 36.4231L3.505 36.3715L3.28978 36.3241L3.08346 36.2808L2.8862 36.2415L2.69812 36.206L2.51936 36.1741L2.35004 36.1456L2.19027 36.1204L2.04018 36.0982L1.89985 36.0789L1.7694 36.0623L1.64891 36.0482L1.53847 36.0364L1.43815 36.0266L1.34802 36.0188L1.26815 36.0127L1.19859 36.008L1.13939 36.0047L1.0906 36.0024L1.05224 36.001L1.02434 36.0002L1.00692 35.9999L1 35.9999L1.00358 35.9998L1.01765 35.9997L1.04221 35.9991L1.07724 35.9979L1.12272 35.9959L1.17861 35.9929L1.24487 35.9887L1.32147 35.983L1.40833 35.9758L1.50541 35.9667L1.61264 35.9555L1.72994 35.9422L1.85723 35.9264L1.99441 35.908L2.14141 35.8867L2.2981 35.8625L2.46439 35.8351L2.64016 35.8043L2.82529 35.7699L3.01964 35.7318L3.22309 35.6899L3.43549 35.6438L3.65669 35.5936L3.88655 35.5389L4.12491 35.4797L4.3716 35.4158L4.62645 35.3471L4.88928 35.2734L5.15993 35.1945L5.4382 35.1105L5.7239 35.021L6.01684 34.9261L6.31682 34.8255L6.62363 34.7192L6.93708 34.6071L7.25694 34.4891L7.58301 34.3651L7.91506 34.235L8.25287 34.0988L8.59622 33.9562L8.94488 33.8074L9.29861 33.6522L9.65719 33.4906L10.0204 33.3226L10.3879 33.148L10.7596 32.9669L11.1352 32.7792L11.5143 32.585L11.8969 32.3841L12.2827 32.1767L12.6713 31.9626L13.0626 31.742L13.4563 31.5148L13.8522 31.281L14.2499 31.0407L14.6493 30.794L15.0501 30.5408L15.4521 30.2812L15.855 30.0153L16.2585 29.7431L16.6625 29.4647L17.0666 29.1802L17.4707 28.8896L17.8744 28.5931L18.2776 28.2908L18.68 27.9827L19.0814 27.669L19.4816 27.3497L19.8802 27.0251L20.2772 26.6952L20.6722 26.3602L21.065 26.0202L21.4555 25.6753L21.8434 25.3258L22.2285 24.9717L22.6107 24.6133L22.9896 24.2507L23.3651 23.884L23.7371 23.5136L24.1053 23.1394L24.4695 22.7618L24.8296 22.3809L25.1855 21.997L25.5368 21.6102L25.8835 21.2207L26.2255 20.8287L26.5625 20.4346L26.8945 20.0384L27.2212 19.6404L27.5426 19.2408L27.8585 18.8399L28.1689 18.4379L28.4735 18.0349L28.7724 17.6314L29.0653 17.2274L29.3522 16.8233L29.633 16.4192L29.9077 16.0155L30.1761 15.6123L30.4383 15.2099L30.694 14.8086L30.9433 14.4086L31.1862 14.0102L31.4226 13.6136L31.6524 13.219L31.8756 12.8267L32.0923 12.437L32.3024 12.05L32.5059 11.6662L32.7027 11.2856L32.893 10.9085L33.0767 10.5353L33.2539 10.1661L33.4246 9.80111L33.5887 9.44067L33.7465 9.08498L33.8978 8.73428L34.0428 8.38879L34.1816 8.04874L34.3141 7.71437L34.4406 7.38589L34.5609 7.06353L34.6754 6.7475L34.7839 6.43802L34.8868 6.13529L34.9839 5.83953L35.0756 5.55092L35.1618 5.26967L35.2427 4.99596L35.3184 4.73L35.3891 4.47194L35.4549 4.22198L35.516 3.98029L35.5724 3.74703L35.6244 3.52236L35.6721 3.30643L35.7157 3.0994L35.7553 2.90141L35.7911 2.7126L35.8233 2.53309L35.852 2.36301L35.8775 2.20248L35.8999 2.05161L35.9194 1.9105L35.9363 1.77926L35.9506 1.65798L35.9626 1.54673L35.9725 1.4456L35.9804 1.35466L35.9867 1.27397L35.9915 1.20359L35.9949 1.14356L35.9973 1.09394L35.9987 1.05474L35.9995 1.02601L35.9999 1.00776L35.9999 1L36 1.00274L36.0001 1.01598L36.0007 1.03971L36.0018 1.07391L36.0037 1.11855L36.0066 1.17361L36.0107 1.23905L36.0162 1.31482L36.0234 1.40088L36.0323 1.49715L36.0433 1.60357L36.0565 1.72007L36.0721 1.84656L36.0903 1.98296L36.1113 2.12918L36.1353 2.28511L36.1624 2.45064L36.193 2.62566L36.227 2.81004L36.2648 3.00367L36.3064 3.2064L36.3522 3.41809L36.4021 3.6386L36.4564 3.86778L36.5152 4.10546L36.5787 4.35149L36.6471 4.6057L36.7204 4.86791L36.7988 5.13794L36.8825 5.41561L36.9715 5.70072L37.066 5.9931L37.1661 6.29252L37.2719 6.5988L37.3835 6.91173L37.501 7.23109L37.6246 7.55667L37.7542 7.88826L37.89 8.22562L38.032 8.56854L38.1803 8.91678L38.335 9.27012L38.4961 9.62832L38.6636 9.99114L38.8377 10.3584L39.0182 10.7297L39.2054 11.105L39.3991 11.4839L39.5995 11.8662L39.8064 12.2517L40.0199 12.6401L40.24 13.0312L40.4667 13.4248L40.6999 13.8204L40.9397 14.2181L41.1859 14.6173L41.4386 15.0181L41.6977 15.4199L41.9631 15.8228L42.2348 16.2263L42.5127 16.6302L42.7967 17.0343L43.0868 17.4384L43.3828 17.8422L43.6847 18.2454L43.9924 18.6479L44.3056 19.0494L44.6244 19.4496L44.9486 19.8484L45.2781 20.2455L45.6127 20.6407L45.9523 21.0337L46.2968 21.4244L46.646 21.8125L46.9997 22.1979L47.3578 22.5802L47.7201 22.9594L48.0864 23.3352L48.4566 23.7075L48.8304 24.076L49.2078 24.4406L49.5884 24.801L49.9721 25.1572L50.3587 25.5089L50.748 25.856L51.1397 26.1983L51.5337 26.5358L51.9298 26.8681L52.3276 27.1953L52.7271 27.5171L53.1279 27.8335L53.5299 28.1443L53.9327 28.4494L54.3362 28.7487L54.7402 29.0421L55.1443 29.3295L55.5484 29.6108L55.9521 29.886L56.3554 30.1549L56.7578 30.4175L57.1592 30.6738L57.5593 30.9236L57.9579 31.167L58.3547 31.4039L58.7494 31.6342L59.1419 31.858L59.5318 32.0752L59.919 32.2858L60.3031 32.4898L60.684 32.6872L61.0613 32.878L61.4349 33.0623L61.8044 33.24L62.1697 33.4111L62.5305 33.5758L62.8866 33.7341L63.2377 33.8859L63.5836 34.0314L63.9241 34.1707L64.2589 34.3037L64.5879 34.4306L64.9108 34.5515L65.2273 34.6664L65.5373 34.7754L65.8406 34.8787L66.1369 34.9763L66.4261 35.0684L66.7079 35.155L66.9822 35.2363L67.2488 35.3125L67.5075 35.3836L67.7581 35.4498L68.0005 35.5112L68.2344 35.568L68.4598 35.6204L68.6764 35.6684L68.8842 35.7123L69.0829 35.7522L69.2724 35.7883L69.4527 35.8208L69.6235 35.8498L69.7848 35.8755L69.9364 35.8982L70.0783 35.9179L70.2104 35.9349L70.3324 35.9494L70.4445 35.9616L70.5464 35.9717L70.6382 35.9798L70.7197 35.9862L70.7909 35.9911L70.8517 35.9946L70.9022 35.9971L70.9422 35.9986L70.9718 35.9994L70.9909 35.9998L70.9995 35.9999H71Z" stroke="#FFC09F"/>
</svg>
